# File created by Blade
# Date/Time:  Wed Jan 21 17:47:32 2015
# Frame Rate: 120.000 fps
#------------------------------------------------------
:FULLY-SPECIFIED
:DEGREES
1186
root 21.954177 26.760612 -18.351456 -157.307581 39.908419 -213.808524
Spine 50.022233 23.583973 57.453785
Head -5.976875 56.302766 -29.908518
LeftShoulder -26.021688 -19.466946 26.011277
LeftArm -35.777861 17.369245 -12.232145
LeftForeArm -14.552470 -0.000000 -1.000136
LeftHand -9.694163 -0.000000 10.509390
LeftHandThumb1 -26.253704 0.000000 33.147579
RightShoulder 11.182180 2.988726 -43.370924
RightArm -18.863482 32.036029 28.026275
RightForeArm -0.276484 -0.000000 19.268527
RightHand -13.176033 -0.000000 -18.592136
RightHandThumb1 -24.326973 -0.000000 -32.862282
LeftUpLeg -17.389556 16.575879 -5.924591
LeftLeg -2.322465 -0.000000 0.000000
LeftFoot -31.250796 3.053192 -29.883842
LeftToeBase 30.498164 -0.000000 -0.000000
RightUpLeg -113.529896 -29.943906 -3.799272
RightLeg 84.302371 -0.000000 -0.000000
RightFoot -38.797032 -25.271492 21.280082
RightToeBase 23.152090 -0.000000 -0.000000
1187
root 21.951055 26.762591 -18.360102 -157.337869 39.899582 -213.856347
Spine 50.045699 23.552182 57.422181
Head -5.825094 56.415569 -29.816461
LeftShoulder -25.975309 -19.440834 26.031672
LeftArm -35.847567 17.363618 -12.011362
LeftForeArm -14.716149 -0.000000 -0.977050
LeftHand -9.695052 0.000000 10.443772
LeftHandThumb1 -26.253704 0.000000 33.147579
RightShoulder 11.286053 2.901267 -43.375623
RightArm -19.009667 32.120351 27.925119
RightForeArm -0.227513 -0.000000 19.305036
RightHand -13.236253 -0.000000 -18.689739
RightHandThumb1 -24.326973 -0.000000 -32.862282
LeftUpLeg -17.340686 16.563291 -5.975113
LeftLeg -2.402537 -0.000000 0.000000
LeftFoot -31.180620 3.056092 -29.917091
LeftToeBase 30.426384 -0.000000 -0.000000
RightUpLeg -113.490900 -29.960299 -3.899345
RightLeg 84.292535 -0.000000 -0.000000
RightFoot -38.807680 -25.347502 21.298118
RightToeBase 23.117203 -0.000000 -0.000000
1188
root 21.948688 26.764105 -18.369362 -157.351968 39.870239 -213.908069
Spine 50.074255 23.563271 57.401312
Head -5.806807 56.489364 -29.825666
LeftShoulder -25.985883 -19.463039 26.069964
LeftArm -35.815477 17.423442 -11.831532
LeftForeArm -14.994133 -0.000000 -1.031375
LeftHand -9.664807 -0.000000 10.538917
LeftHandThumb1 -26.253704 0.000000 33.147579
RightShoulder 11.301775 2.909793 -43.318119
RightArm -19.204149 32.026340 27.797320
RightForeArm -0.174424 -0.000000 19.396692
RightHand -13.332917 -0.000000 -18.720948
RightHandThumb1 -24.326973 -0.000000 -32.862282
LeftUpLeg -17.310311 16.535310 -6.027649
LeftLeg -2.484749 -0.000000 0.000000
LeftFoot -31.128430 3.057450 -29.972375
LeftToeBase 30.441558 -0.000000 -0.000000
RightUpLeg -113.479770 -30.008646 -3.965916
RightLeg 84.291457 -0.000000 -0.000000
RightFoot -38.822218 -25.382793 21.265309
RightToeBase 22.936784 -0.000000 -0.000000
1189
root 21.945567 26.764861 -18.378188 -157.380282 39.798733 -213.924382
Spine 50.089836 23.522293 57.425417
Head -5.690009 56.595111 -29.710970
LeftShoulder -25.983913 -19.469575 26.150004
LeftArm -35.805961 17.433811 -11.678416
LeftForeArm -15.221156 -0.000000 -1.029521
LeftHand -9.665082 -0.000000 10.545566
LeftHandThumb1 -26.253704 0.000000 33.147579
RightShoulder 11.262764 2.880333 -43.281551
RightArm -19.239383 31.912725 27.735644
RightForeArm -0.065850 -0.000000 19.367562
RightHand -13.295735 -0.000000 -18.780384
RightHandThumb1 -24.326973 -0.000000 -32.862282
LeftUpLeg -17.252220 16.466037 -6.021219
LeftLeg -2.548778 -0.000000 0.000000
LeftFoot -31.102648 3.077027 -29.991164
LeftToeBase 30.451683 -0.000000 -0.000000
RightUpLeg -113.429866 -30.091573 -4.004960
RightLeg 84.308364 -0.000000 -0.000000
RightFoot -38.823256 -25.363992 21.278341
RightToeBase 22.833756 -0.000000 -0.000000
1190
root 21.944121 26.765180 -18.386689 -157.381953 39.738959 -213.918043
Spine 50.093847 23.488505 57.451362
Head -5.588125 56.633425 -29.629668
LeftShoulder -25.955096 -19.424098 26.170950
LeftArm -35.824572 17.368778 -11.505753
LeftForeArm -15.354529 -0.000000 -1.022661
LeftHand -9.647857 -0.000000 10.542927
LeftHandThumb1 -26.253704 0.000000 33.147579
RightShoulder 11.237475 2.826378 -43.255475
RightArm -19.261885 31.826694 27.704553
RightForeArm 0.037899 -0.000000 19.387155
RightHand -13.293917 -0.000000 -18.878363
RightHandThumb1 -24.326973 -0.000000 -32.862282
LeftUpLeg -17.206033 16.396260 -5.995535
LeftLeg -2.606020 -0.000000 0.000000
LeftFoot -31.099305 3.101985 -30.019035
LeftToeBase 30.467373 -0.000000 -0.000000
RightUpLeg -113.408396 -30.162780 -4.002883
RightLeg 84.327672 -0.000000 -0.000000
RightFoot -38.809451 -25.283550 21.463241
RightToeBase 22.893797 -0.000000 -0.000000
1191
root 21.942967 26.765211 -18.395091 -157.377693 39.669219 -213.897237
Spine 50.081737 23.438673 57.483422
Head -5.436249 56.742554 -29.515811
LeftShoulder -25.945265 -19.414042 26.195777
LeftArm -35.828771 17.368473 -11.337411
LeftForeArm -15.526620 -0.000000 -0.994704
LeftHand -9.702274 -0.000000 10.664381
LeftHandThumb1 -26.253704 0.000000 33.147579
RightShoulder 11.240984 2.766881 -43.240456
RightArm -19.296610 31.701998 27.675243
RightForeArm 0.145470 -0.000000 19.394948
RightHand -13.261404 -0.000000 -18.922135
RightHandThumb1 -24.326973 -0.000000 -32.862282
LeftUpLeg -17.162939 16.329162 -5.955273
LeftLeg -2.653029 -0.000000 0.000000
LeftFoot -31.092904 3.111146 -30.031520
LeftToeBase 30.460478 -0.000000 -0.000000
RightUpLeg -113.388710 -30.239151 -3.973712
RightLeg 84.347196 -0.000000 -0.000000
RightFoot -38.806626 -25.350452 21.267734
RightToeBase 22.778105 -0.000000 -0.000000
1192
root 21.943028 26.765357 -18.402652 -157.350680 39.634833 -213.856369
Spine 50.089124 23.403731 57.518462
Head -5.317220 56.763901 -29.457324
LeftShoulder -25.950160 -19.431502 26.218225
LeftArm -35.822998 17.411153 -11.196635
LeftForeArm -15.645206 -0.000000 -1.018065
LeftHand -9.661781 -0.000000 10.726643
LeftHandThumb1 -26.253704 0.000000 33.147579
RightShoulder 11.282983 2.718867 -43.231213
RightArm -19.394342 31.624095 27.618339
RightForeArm 0.192765 -0.000000 19.456736
RightHand -13.241818 0.000000 -18.850748
RightHandThumb1 -24.326973 -0.000000 -32.862282
LeftUpLeg -17.121706 16.268481 -5.902586
LeftLeg -2.709781 -0.000000 0.000000
LeftFoot -31.095423 3.134890 -30.061647
LeftToeBase 30.453129 -0.000000 -0.000000
RightUpLeg -113.376227 -30.269328 -3.949341
RightLeg 84.361727 -0.000000 -0.000000
RightFoot -38.788102 -25.371042 21.266256
RightToeBase 22.752101 -0.000000 -0.000000
1193
root 21.941829 26.764323 -18.412423 -157.335774 39.610326 -213.829996
Spine 50.093541 23.377389 57.539564
Head -5.161103 56.788287 -29.365913
LeftShoulder -25.956384 -19.456408 26.251918
LeftArm -35.815254 17.478063 -11.097261
LeftForeArm -15.844241 -0.000000 -1.026498
LeftHand -9.626944 -0.000000 10.810575
LeftHandThumb1 -26.253704 0.000000 33.147579
RightShoulder 11.304529 2.679096 -43.216818
RightArm -19.459602 31.542053 27.584449
RightForeArm 0.238066 -0.000000 19.515002
RightHand -13.275176 -0.000000 -18.872739
RightHandThumb1 -24.326973 -0.000000 -32.862282
LeftUpLeg -17.075888 16.193591 -5.857219
LeftLeg -2.754451 -0.000000 0.000000
LeftFoot -31.110204 3.154410 -30.094508
LeftToeBase 30.466022 -0.000000 -0.000000
RightUpLeg -113.377626 -30.301895 -3.926558
RightLeg 84.383598 -0.000000 -0.000000
RightFoot -38.762899 -25.367263 21.276219
RightToeBase 22.741308 -0.000000 -0.000000
1194
root 21.941447 26.763067 -18.418026 -157.308780 39.598941 -213.801673
Spine 50.111505 23.371000 57.552592
Head -5.019226 56.838350 -29.283963
LeftShoulder -25.938652 -19.445945 26.270841
LeftArm -35.799756 17.405102 -10.982760
LeftForeArm -15.903402 -0.000000 -1.047299
LeftHand -9.575760 -0.000000 10.941486
LeftHandThumb1 -26.253704 0.000000 33.147579
RightShoulder 11.402380 2.815658 -43.152866
RightArm -19.662286 31.223861 27.467001
RightForeArm 0.398750 -0.000000 19.443404
RightHand -13.176995 -0.000000 -18.953046
RightHandThumb1 -24.326973 -0.000000 -32.862282
LeftUpLeg -17.055512 16.128645 -5.811680
LeftLeg -2.782290 -0.000000 0.000000
LeftFoot -31.137774 3.182313 -30.149666
LeftToeBase 30.488826 -0.000000 -0.000000
RightUpLeg -113.390248 -30.304970 -3.910122
RightLeg 84.399370 -0.000000 -0.000000
RightFoot -38.697596 -25.320768 21.362619
RightToeBase 22.381982 -0.000000 -0.000000
1195
root 21.941396 26.761601 -18.424299 -157.278811 39.615659 -213.787081
Spine 50.151881 23.385455 57.545475
Head -5.001015 56.807594 -29.292417
LeftShoulder -25.944218 -19.468214 26.257578
LeftArm -35.766705 17.331674 -10.811476
LeftForeArm -15.843687 -0.000000 -1.006242
LeftHand -9.648169 -0.000000 10.951733
LeftHandThumb1 -26.253704 0.000000 33.147579
RightShoulder 11.404077 2.836514 -43.137989
RightArm -19.779891 31.314412 27.404608
RightForeArm 0.265743 0.000000 19.562692
RightHand -13.247531 -0.000000 -18.929275
RightHandThumb1 -24.326973 -0.000000 -32.862282
LeftUpLeg -17.045950 16.083186 -5.790150
LeftLeg -2.807097 -0.000000 0.000000
LeftFoot -31.157240 3.236250 -30.151205
LeftToeBase 30.357988 -0.000000 -0.000000
RightUpLeg -113.414755 -30.287196 -3.909069
RightLeg 84.409893 -0.000000 -0.000000
RightFoot -38.697738 -25.474703 21.222922
RightToeBase 22.640450 -0.000000 -0.000000
1196
root 21.939104 26.759856 -18.429206 -157.276725 39.627419 -213.788538
Spine 50.183990 23.384122 57.512280
Head -4.887412 56.883088 -29.188346
LeftShoulder -25.945606 -19.443887 26.298650
LeftArm -35.763376 17.294321 -10.799910
LeftForeArm -15.914603 -0.000000 -1.017902
LeftHand -9.579974 -0.000000 10.980934
LeftHandThumb1 -26.253704 0.000000 33.147579
RightShoulder 11.416995 2.804607 -43.111085
RightArm -19.803056 31.307138 27.375555
RightForeArm 0.287927 -0.000000 19.580485
RightHand -13.237030 0.000000 -18.932852
RightHandThumb1 -24.326973 -0.000000 -32.862282
LeftUpLeg -17.024646 16.008012 -5.770749
LeftLeg -2.821756 -0.000000 0.000000
LeftFoot -31.204639 3.300057 -30.164574
LeftToeBase 30.317722 -0.000000 -0.000000
RightUpLeg -113.430523 -30.275537 -3.915287
RightLeg 84.414317 -0.000000 -0.000000
RightFoot -38.661926 -25.553615 21.169762
RightToeBase 22.663068 -0.000000 -0.000000
